<svg width="10" height="10" viewBox="0 0 10 10" fill="none" xmlns="http://www.w3.org/2000/svg">
<path d="M3.57429 5.02544L4.63541 6.08657L6.40395 3.61061M9.23361 4.67174C9.23361 5.26974 8.9365 5.79889 8.48234 6.11864C8.53127 6.39819 8.51211 6.68542 8.42649 6.956C8.34086 7.22659 8.19129 7.47255 7.99045 7.67306C7.78993 7.87391 7.54397 8.02348 7.27339 8.1091C7.00281 8.19473 6.71558 8.21388 6.43602 8.16495C6.27294 8.39721 6.0563 8.58675 5.80444 8.71753C5.55258 8.8483 5.27291 8.91646 4.98912 8.91623C4.39112 8.91623 3.86197 8.61911 3.54222 8.16495C3.26267 8.21384 2.97545 8.19467 2.70487 8.10905C2.4343 8.02342 2.18833 7.87388 1.98779 7.67306C1.78695 7.47255 1.63738 7.22659 1.55175 6.956C1.46613 6.68542 1.44697 6.39819 1.4959 6.11864C1.26365 5.95556 1.07411 5.73892 0.943331 5.48706C0.812556 5.23519 0.744398 4.95553 0.744629 4.67174C0.744629 4.07374 1.04174 3.54459 1.4959 3.22484C1.44697 2.94528 1.46613 2.65805 1.55175 2.38747C1.63738 2.11689 1.78695 1.87093 1.98779 1.67041C2.18833 1.4696 2.4343 1.32005 2.70487 1.23443C2.97545 1.14881 3.26267 1.12963 3.54222 1.17852C3.70532 0.946293 3.92197 0.756773 4.17383 0.626001C4.42568 0.49523 4.70534 0.427055 4.98912 0.427246C5.58712 0.427246 6.11627 0.724361 6.43602 1.17852C6.71558 1.12963 7.0028 1.14881 7.27337 1.23443C7.54394 1.32005 7.78991 1.4696 7.99045 1.67041C8.19126 1.87095 8.34081 2.11691 8.42643 2.38749C8.51205 2.65806 8.53123 2.94528 8.48234 3.22484C8.71459 3.38791 8.90413 3.60455 9.03491 3.85642C9.16568 4.10828 9.23384 4.38795 9.23361 4.67174Z" stroke="#502411" stroke-width="0.707415" stroke-linecap="round" stroke-linejoin="round"/>
</svg>
