<svg width="75" height="74" viewBox="0 0 75 74" fill="none" xmlns="http://www.w3.org/2000/svg">
<path d="M56.1345 20.82H55.959C44.5092 19.148 32.8841 19.148 21.3444 20.82C20.8146 20.9095 20.2882 20.5551 20.2882 20.0287C20.1988 19.4989 20.5531 18.9725 21.0795 18.9725C32.7046 17.3005 44.5094 17.3005 56.2199 18.9725C56.7497 19.062 57.1007 19.5024 57.0112 20.0287C57.0147 20.5586 56.5748 20.82 56.1345 20.82Z" fill="#EAA98D"/>
<path d="M57.4554 15.2747H57.3659C45.0353 13.6027 32.4397 13.6027 20.1091 15.2747C19.5793 15.3642 19.0529 15.0098 19.0529 14.4834C18.9634 13.9536 19.3178 13.4272 19.8442 13.4272C32.35 11.7552 45.0356 11.8411 57.6268 13.4272C58.1567 13.5166 58.5076 13.957 58.4181 14.4834C58.3356 14.9203 57.8958 15.2747 57.4554 15.2747Z" fill="#EAA98D"/>
<path d="M40.1948 73.7549C39.579 73.7549 39.2246 73.3145 39.2246 72.6987L39.4001 69.7915C40.0159 57.9911 48.4727 48.0377 59.9226 45.4809C60.4524 45.3914 60.9788 45.6563 61.0682 46.1862C61.1577 46.716 60.8928 47.2424 60.3629 47.3318C49.704 49.7092 41.8671 58.9569 41.3369 69.8809L41.1614 72.7881C41.1614 73.404 40.7213 73.7549 40.1948 73.7549Z" fill="#EAA98D"/>
<path d="M61.4194 73.5798H61.1545C60.6247 73.4044 60.3632 72.8745 60.4492 72.3482C62.8265 63.8056 62.916 56.1441 60.6247 49.5384C59.9194 47.426 59.0386 45.7504 58.2473 44.1644C57.1016 41.9625 55.9559 39.7606 55.1647 36.413C52.7873 26.8145 55.6051 17.8273 55.7805 17.4768C56.3103 15.8047 56.8367 14.4836 57.1911 13.4239C58.0719 11.1325 58.5123 9.99035 58.5123 7.43405C58.5123 5.58305 58.2474 3.82154 57.6315 1.97407C57.456 1.44424 57.721 0.917865 58.2474 0.742418C58.7772 0.566954 59.3036 0.831869 59.479 1.35826C60.1843 3.3847 60.5352 5.41114 60.4492 7.43406C60.4492 10.3413 59.9194 11.6624 58.9527 14.1292C58.6017 15.1854 58.0719 16.4206 57.542 18.0926C57.542 18.1821 54.7243 26.9002 57.0122 35.9728C57.8035 39.145 58.8632 41.1679 59.9194 43.3698C60.8002 45.0418 61.5914 46.7173 62.3862 49.0052C64.7636 55.9618 64.7636 64.0679 62.2968 72.9609C62.2142 73.2258 61.8598 73.5798 61.4194 73.5798Z" fill="#EAA98D"/>
<path d="M37.1122 73.7551C36.5823 73.7551 36.1419 73.3148 36.1419 72.8744L35.9664 69.9672C35.4366 59.0476 27.5993 49.7996 16.9404 47.4181C16.4105 47.3286 16.0596 46.8022 16.2351 46.2724C16.4105 45.7426 16.8509 45.3916 17.3808 45.5671C28.9204 48.0374 37.3766 58.0765 37.9922 69.8804L38.1677 72.7876C38.1677 73.314 37.7273 73.7544 37.1115 73.7544C37.1975 73.7544 37.1975 73.7544 37.1115 73.7544L37.1122 73.7551Z" fill="#EAA98D"/>
<path d="M38.3443 46.0112C30.7684 46.0112 23.5468 45.4814 18.087 44.5146C17.5571 44.4252 17.2062 43.8988 17.2957 43.3689C17.3851 42.8391 17.9115 42.4882 18.4413 42.5776C23.8154 43.4584 30.8618 43.9883 38.3482 44.0742C46.1855 44.0742 53.4963 43.5444 58.9561 42.5776C59.4859 42.4882 60.0123 42.8425 60.1018 43.3689C60.1912 43.8988 59.8369 44.4251 59.3105 44.5146C53.6716 45.4814 46.1857 46.0112 38.3443 46.0112Z" fill="#EAA98D"/>
<path d="M41.1616 65.6529H36.3174C35.7876 65.6529 35.3472 65.2125 35.3472 64.6826C35.3472 64.1528 35.7875 63.7124 36.3174 63.7124H41.1616C41.6914 63.7124 42.1318 64.1528 42.1318 64.6826C42.1318 65.2125 41.6914 65.6529 41.1616 65.6529Z" fill="#EAA98D"/>
<path d="M15.9752 73.5797C15.5348 73.5797 15.1839 73.3148 15.005 72.8744C12.5381 63.977 12.4522 55.875 14.9155 48.9188C15.7068 46.6274 16.5875 44.9554 17.3823 43.2833C18.528 41.0814 19.4947 39.055 20.2895 35.8864C22.5809 26.8137 19.7597 18.096 19.7597 18.0062C19.2299 16.3342 18.7035 15.099 18.3491 14.0428C17.4683 11.576 16.9385 10.2548 16.8525 7.34763C16.8525 5.32119 17.1174 3.29474 17.8227 1.27182C17.9982 0.741996 18.528 0.480517 19.0544 0.655982C19.5842 0.831446 19.8457 1.36127 19.6702 1.88763C19.0544 3.73863 18.7895 5.50014 18.7895 7.34761C18.7895 9.90039 19.2299 11.0461 20.1106 13.3375C20.4615 14.3937 20.9914 15.6288 21.5212 17.3903C21.6107 17.7413 24.5144 26.7281 22.1371 36.3266C21.2563 39.6742 20.1106 41.962 19.0544 44.0779C18.2631 45.664 17.3824 47.336 16.6771 49.452C14.3857 56.0576 14.4752 63.7193 16.8526 72.2618C17.028 72.7916 16.6771 73.318 16.1473 73.4934C16.1507 73.49 16.0612 73.5797 15.9752 73.5797Z" fill="#EAA98D"/>
<path d="M74.0148 31.7437H58.8667C58.3369 31.7437 57.8965 31.3033 57.8965 30.7735C57.8965 30.2436 58.3369 29.8032 58.8667 29.8032H74.0148C74.5447 29.8032 74.9851 30.2436 74.9851 30.7735C74.9851 31.3033 74.5447 31.7437 74.0148 31.7437Z" fill="#EAA98D"/>
<path d="M65.3819 36.0579C65.2064 36.0579 65.031 35.9685 64.8521 35.8824L58.3359 31.6541C58.071 31.4786 57.8955 31.1243 57.8955 30.8628C57.8955 30.5979 58.071 30.247 58.3359 30.0715L64.8521 25.8432C65.2924 25.5783 65.9083 25.6677 66.1732 26.1081C66.4381 26.5485 66.3487 27.1643 65.9083 27.4292L60.6238 30.8628L65.9083 34.2963C66.3487 34.5612 66.5241 35.177 66.1732 35.6174C66.0872 35.8823 65.7363 36.0579 65.3819 36.0579Z" fill="#EAA98D"/>
<path d="M16.59 31.7437H1.44192C0.912092 31.7437 0.47168 31.3033 0.47168 30.7735C0.47168 30.2436 0.912057 29.8032 1.44192 29.8032L16.59 29.8067C17.1199 29.8067 17.5603 30.247 17.5603 30.7769C17.5603 31.3033 17.1199 31.7437 16.59 31.7437Z" fill="#EAA98D"/>
<path d="M10.0741 36.0577C9.72317 36.0577 9.45826 35.8823 9.28279 35.6173C9.01788 35.177 9.10733 34.5611 9.5477 34.2962L14.8322 30.8627L9.5477 27.4291C9.10733 27.1642 8.93186 26.5484 9.28279 26.108C9.5477 25.6676 10.1635 25.4922 10.6039 25.8431L17.1201 30.0714C17.385 30.2469 17.5605 30.5118 17.5605 30.8627C17.5605 31.2137 17.385 31.4786 17.1201 31.654L10.6039 35.8824C10.425 35.9718 10.2496 36.0577 10.0741 36.0577Z" fill="#EAA98D"/>
</svg>
