<svg width="60" height="76" viewBox="0 0 60 76" fill="none" xmlns="http://www.w3.org/2000/svg">
<path d="M6.17752 62.7199V15.1468C6.17752 13.8531 7.22747 12.8032 8.52118 12.8032H16.1677C16.599 12.8032 16.9489 12.4532 16.9489 12.0219V10.5814C16.9489 10.0876 17.3489 9.68764 17.8427 9.68764H19.052C19.4832 9.68764 19.8332 9.33766 19.8332 8.90643V6.91899C19.8332 6.42526 20.2332 6.02527 20.7269 6.02527H25.4485C25.8985 6.03777 26.2829 5.60654 26.2266 5.16283C26.4266 0.37552 33.2388 0.37864 33.445 5.15033C33.3825 5.60031 33.7638 6.03469 34.2231 6.02533H38.9448C39.4385 6.02533 39.8385 6.42531 39.8385 6.91905V8.90649C39.8385 9.33772 40.1885 9.6877 40.6197 9.6877H41.829C42.3227 9.6877 42.7227 10.0877 42.7227 10.5814V15.2937C42.7227 15.7874 42.3227 16.1874 41.829 16.1874H17.8428C17.3491 16.1874 16.9491 15.7874 16.9491 15.2937C16.9304 14.2656 15.4086 14.2625 15.3867 15.2937C15.3867 16.6468 16.4867 17.7498 17.8428 17.7498H41.829C43.1821 17.7498 44.2851 16.6499 44.2851 15.2937V12.8032H51.1504C52.4441 12.8032 53.4941 13.8531 53.4941 15.1468V20.7216H35.7013C35.27 20.7216 34.9201 21.0716 34.9201 21.5028V32.5184C34.9201 32.9496 35.27 33.2996 35.7013 33.2996H53.4941V57.2457C53.4941 57.677 53.8441 58.0269 54.2753 58.0269C54.7065 58.0269 55.0565 57.677 55.0565 57.2457V38.6153L59.0782 32.9687C59.1657 32.8375 59.2188 32.6843 59.2219 32.525C59.2251 32.5156 59.2219 21.5095 59.2219 21.5007C59.2219 21.0694 58.8719 20.7194 58.4407 20.7194H55.0533V15.1446C55.0533 12.9916 53.3003 11.2386 51.1473 11.2386H44.282V10.5792C44.2632 8.99489 42.932 7.97622 41.3977 8.12309V6.9169C41.3977 5.56384 40.2946 4.46077 38.9416 4.46077H34.9573C34.0105 -1.47025 25.6546 -1.46713 24.7082 4.46077H20.724C19.3709 4.46077 18.2678 5.56384 18.2678 6.9169V8.12309C16.7335 7.97622 15.4024 8.99489 15.3836 10.5792V11.2386H8.51826C6.36523 11.2386 4.61219 12.9916 4.61219 15.1446V57.3988L0.590523 63.0454C0.503022 63.1767 0.449905 63.3298 0.446777 63.4892V74.5135C0.446777 74.9447 0.796762 75.2947 1.22799 75.2947H58.4415C58.8727 75.2947 59.2227 74.9447 59.2227 74.5135V63.498C59.2227 63.0667 58.8727 62.7168 58.4415 62.7168L6.17752 62.7199ZM41.032 28.8934C40.6008 28.8934 40.2508 29.2434 40.2508 29.6746V31.737H36.4853V22.2846H40.2508V24.347C40.2508 24.7782 40.6008 25.1282 41.032 25.1282C43.5256 25.2157 43.5225 28.806 41.032 28.8934ZM55.0562 35.9244V33.2995H56.9248L55.0562 35.9244ZM54.275 22.2842H57.6623V31.7366H54.1281V27.8961C54.1281 27.4649 53.7781 27.1149 53.3469 27.1149C52.9157 27.1149 52.5657 27.4649 52.5657 27.8961V31.7366H49.0314V29.921C49.0314 29.4898 48.6814 29.1398 48.2502 29.1398C47.819 29.1398 47.469 29.4898 47.469 29.921V31.7366H41.8161V30.3648C45.3472 29.4992 45.3441 24.515 41.8161 23.6526V22.2808H54.278L54.275 22.2842ZM4.61474 60.0953V62.7202H2.7461L4.61474 60.0953ZM6.23339 73.7355V71.92C6.23339 71.4888 5.8834 71.1388 5.45217 71.1388C5.02095 71.1388 4.67096 71.4888 4.67096 71.92V73.7355H2.0086V64.2831H52.3312V65.6549C48.8001 66.5205 48.8032 71.5047 52.3312 72.3671V73.7389H47.0065V71.9234C47.0065 71.4921 46.6565 71.1422 46.2253 71.1422C45.794 71.1422 45.444 71.4921 45.444 71.9234V73.7389H41.9098V69.8984C41.9098 69.4672 41.5598 69.1172 41.1286 69.1172C40.6974 69.1172 40.3474 69.4672 40.3474 69.8984V73.7389H36.8131V71.9234C36.8131 71.4921 36.4631 71.1422 36.0319 71.1422C35.6007 71.1422 35.2507 71.4921 35.2507 71.9234V73.7389H31.7165V69.8984C31.7165 69.4672 31.3665 69.1172 30.9352 69.1172C30.504 69.1172 30.154 69.4672 30.154 69.8984V73.7389H26.6198V71.9234C26.6198 71.4921 26.2698 71.1422 25.8386 71.1422C25.4073 71.1422 25.0574 71.4921 25.0574 71.9234V73.7389H21.5231V69.8984C21.5231 69.4672 21.1731 69.1172 20.7419 69.1172C20.3107 69.1172 19.9607 69.4672 19.9607 69.8984V73.7389H16.4264V71.9234C16.4264 71.4921 16.0764 71.1422 15.6452 71.1422C15.214 71.1422 14.864 71.4921 14.864 71.9234V73.7389H11.3298V69.8984C11.3298 69.4672 10.9798 69.1172 10.5485 69.1172C10.1173 69.1172 9.76733 69.4672 9.76733 69.8984V73.7389H6.23308L6.23339 73.7355ZM57.6623 73.7355H53.8969V71.6731C53.8969 71.2419 53.5469 70.8919 53.1157 70.8919C50.622 70.8044 50.6252 67.2139 53.1157 67.1265C53.5469 67.1265 53.8969 66.7765 53.8969 66.3453V64.2829H57.6623V73.7355Z" fill="#EAA98D"/>
</svg>
