<svg width="48" height="76" viewBox="0 0 48 76" fill="none" xmlns="http://www.w3.org/2000/svg">
<path fill-rule="evenodd" clip-rule="evenodd" d="M5.47317 45.2977C5.13021 45.0969 4.74543 44.9965 4.36065 45.0133C3.93405 45.03 3.51581 45.1889 3.17285 45.4733C2.8299 45.7661 2.60405 46.1509 2.51204 46.5775C2.42839 46.9874 2.47021 47.4223 2.64587 47.8155C3.566 49.3295 4.39411 50.8937 5.22222 52.4579C7.89059 57.5019 10.6175 62.663 16.7071 66.3267C18.3549 66.9123 19.6849 67.4309 20.9898 68.2172C22.2696 68.9867 23.4825 69.9821 24.8627 71.4878C28.1919 72.3745 31.5713 73.0436 34.959 73.4703C38.3384 73.8969 41.7428 74.106 45.1557 74.0809C42.8554 71.6467 40.2288 68.627 38.1376 65.4066C35.9377 62.0105 34.3484 58.3969 34.34 55.0008C34.34 54.959 34.34 54.9088 34.3484 54.867C34.6495 52.8427 34.4488 50.8101 33.7963 48.9447C33.1439 47.071 32.0397 45.3562 30.5508 43.9593C30.5173 43.9259 30.4839 43.884 30.4504 43.8506L15.6196 25.4815C15.193 25.2055 14.6995 25.0716 14.206 25.0967C13.6874 25.1218 13.1688 25.3142 12.7589 25.6823C12.3406 26.0503 12.0813 26.5271 11.9893 27.0457C11.8973 27.556 11.9726 28.0997 12.2319 28.5849L16.1048 34.482C16.1383 34.5322 16.1717 34.574 16.2052 34.6242C16.2135 34.641 16.2303 34.6577 16.2386 34.6744L22.2027 43.7502C22.4704 44.1517 22.3533 44.7038 21.9518 44.9631C21.5503 45.2308 20.9982 45.1137 20.7389 44.7121L14.6995 35.5193C14.4737 35.1847 14.1725 34.9254 13.8296 34.7497C13.4699 34.5657 13.0517 34.4737 12.6251 34.4904C12.1901 34.5071 11.7802 34.6493 11.4289 34.8752C11.0776 35.1094 10.7848 35.4272 10.6008 35.8204C10.4084 36.2052 10.3331 36.6318 10.3666 37.0584C10.4 37.4766 10.5422 37.8865 10.7932 38.2378C10.8099 38.2545 10.8183 38.2796 10.835 38.3047L16.4478 46.9121C16.7154 47.322 16.5983 47.8657 16.1884 48.125C15.7786 48.3926 15.2349 48.2755 14.9756 47.8657L9.49663 39.4591C9.07002 39.0325 8.51795 38.7982 7.94914 38.7564C7.37197 38.723 6.77807 38.8903 6.29292 39.275C5.7994 39.6682 5.49826 40.2119 5.41461 40.7891C5.3226 41.3662 5.44807 41.9769 5.79103 42.5038L11.4289 51.153C11.6966 51.5629 11.5795 52.1066 11.1696 52.3659C10.7597 52.6336 10.216 52.5165 9.95669 52.1066L5.51499 45.2893L5.47317 45.2977ZM8.15826 30.9688C7.6731 30.9688 7.27996 30.5757 7.27996 30.0905C7.27996 29.6054 7.6731 29.2122 8.15826 29.2122C8.64342 29.2122 9.03656 29.6054 9.03656 30.0905C9.03656 30.5757 8.64342 30.9688 8.15826 30.9688ZM4.93782 13.4948C4.45267 13.4948 4.05952 13.1016 4.05952 12.6165C4.05952 12.1313 4.45267 11.7382 4.93782 11.7382C5.42298 11.7382 5.81612 12.1313 5.81612 12.6165C5.81612 13.1016 5.42298 13.4948 4.93782 13.4948ZM40.1201 22.0269C39.6349 22.0269 39.2418 21.6337 39.2418 21.1486C39.2418 20.6634 39.6349 20.2703 40.1201 20.2703C40.6052 20.2703 40.9984 20.6634 40.9984 21.1486C40.9984 21.6337 40.6052 22.0269 40.1201 22.0269ZM5.99178 17.903C5.99178 17.4179 6.38493 17.0247 6.87009 17.0247C7.35524 17.0247 7.74839 17.4179 7.74839 17.903V19.8018H9.64719C10.1323 19.8018 10.5255 20.195 10.5255 20.6801C10.5255 21.1653 10.1323 21.5584 9.64719 21.5584H7.74839V23.4572C7.74839 23.9424 7.35524 24.3355 6.87009 24.3355C6.38493 24.3355 5.99178 23.9424 5.99178 23.4572V21.5584H4.09298C3.60782 21.5584 3.21468 21.1653 3.21468 20.6801C3.21468 20.195 3.60782 19.8018 4.09298 19.8018H5.99178V17.903ZM36.7658 23.8337C36.7658 23.3485 37.1589 22.9554 37.6441 22.9554C38.1293 22.9554 38.5224 23.3485 38.5224 23.8337V25.7325H40.4212C40.9064 25.7325 41.2995 26.1256 41.2995 26.6108C41.2995 27.0959 40.9064 27.4891 40.4212 27.4891H38.5224V29.3879C38.5224 29.873 38.1293 30.2662 37.6441 30.2662C37.1589 30.2662 36.7658 29.873 36.7658 29.3879V27.4891H34.867C34.3818 27.4891 33.9887 27.0959 33.9887 26.6108C33.9887 26.1256 34.3818 25.7325 34.867 25.7325H36.7658V23.8337ZM31.1363 23.1645C36.197 19.9357 38.1125 16.8825 38.2715 14.6073C38.33 13.729 38.1125 12.9762 37.711 12.399C37.3179 11.8302 36.7407 11.4203 36.0632 11.2196C34.7666 10.8264 33.1355 11.1945 31.7637 12.6165C31.4291 12.9678 30.8686 12.9762 30.5173 12.6416L30.4922 12.6165C29.1204 11.1945 27.4893 10.8264 26.1927 11.2196C25.5235 11.4203 24.9464 11.8302 24.5449 12.399C24.1434 12.9762 23.9259 13.7206 23.9844 14.6073C24.1434 16.8825 26.0589 19.9357 31.1196 23.1645H31.1363ZM40.0281 14.7244C39.8357 17.5517 37.5772 21.2489 31.6131 24.9378C31.3371 25.1135 30.969 25.1302 30.6762 24.9462C29.1455 24.0009 27.8573 23.0474 26.7783 22.1189C26.1593 22.604 25.4984 23.0976 24.8125 23.5743C23.9426 24.185 22.9974 24.8123 21.9685 25.4397C21.6925 25.6154 21.3244 25.6321 21.0317 25.4481C11.2951 19.4338 7.60619 13.4613 7.29669 8.91926C7.16285 6.89498 7.68147 5.13838 8.63505 3.75819C9.597 2.36964 11.0023 1.38259 12.6167 0.897434C15.3352 0.0776862 18.6561 0.671585 21.4917 3.23121C23.3069 1.59171 25.3312 0.763598 27.2634 0.587938C28.8193 0.454101 30.3166 0.746868 31.6131 1.39932C32.918 2.05177 34.0054 3.07228 34.7332 4.38555C35.4944 5.75737 35.8624 7.43869 35.6533 9.3375C35.9712 9.37095 36.2806 9.43787 36.5818 9.52989C37.6274 9.84775 38.5391 10.4918 39.1665 11.3869C39.7855 12.2735 40.1201 13.4111 40.0364 14.716L40.0281 14.7244ZM25.4901 20.8976C23.3152 18.6391 22.37 16.5145 22.2445 14.7244C22.1525 13.4195 22.4955 12.2903 23.1145 11.3952C23.7418 10.4918 24.6452 9.85611 25.6992 9.53825C27.3638 9.03636 29.3881 9.36259 31.1447 10.8181C32.0146 10.0987 32.9431 9.65536 33.8716 9.4546C34.1142 7.81511 33.8381 6.38473 33.2108 5.25548C32.6587 4.26007 31.8222 3.48215 30.8352 2.98026C29.8314 2.47838 28.6603 2.25253 27.4307 2.36127C25.6657 2.5202 23.792 3.36504 22.1442 5.07982C21.8096 5.43114 21.2491 5.43951 20.8978 5.10492L20.8727 5.07982C18.4218 2.5453 15.4858 1.89284 13.1437 2.60385C11.9057 2.98026 10.835 3.73309 10.0989 4.78706C9.36279 5.84938 8.96128 7.22121 9.07002 8.81888C9.3377 12.8005 12.6836 18.1205 21.5084 23.6831C22.3115 23.1728 23.081 22.6626 23.8171 22.144C24.411 21.7257 24.9715 21.3075 25.5068 20.8976H25.4901ZM12.8425 32.7338L10.7513 29.5468C10.7513 29.5468 10.7012 29.4715 10.6761 29.4297C10.2244 28.5849 10.0905 27.6313 10.2495 26.7362C10.4084 25.8412 10.8684 24.9964 11.5962 24.3606C12.3239 23.7249 13.219 23.382 14.1307 23.3401C15.0257 23.2983 15.9291 23.5493 16.6987 24.0846C16.774 24.1348 16.8493 24.2017 16.9162 24.277L22.3533 31.0106L23.3571 28.5765C23.3905 28.5012 23.424 28.4343 23.4742 28.3757C24.938 26.4686 26.3517 25.264 27.5562 24.7956C28.033 24.6116 28.4847 24.5363 28.9029 24.5614C29.3797 24.5949 29.8063 24.7538 30.1827 25.0382C30.5842 25.3477 30.9021 25.791 31.1279 26.3765C31.1781 26.502 31.1949 26.6359 31.1865 26.7697L30.0322 40.3039L29.8481 40.2872L31.8139 42.7213C33.4952 44.3023 34.7415 46.2513 35.4776 48.3676C36.2221 50.4922 36.4563 52.7925 36.1217 55.0761C36.1552 58.0623 37.619 61.3246 39.6349 64.4447C41.7178 67.6567 44.3778 70.6931 46.6781 73.1022C46.9039 73.3364 47.0461 73.6208 47.0963 73.9219C47.1549 74.2231 47.1214 74.5409 46.9959 74.8421C46.8705 75.1432 46.6613 75.3858 46.4104 75.5614C46.1595 75.7287 45.8499 75.8291 45.5237 75.8291C41.9185 75.8709 38.3217 75.6618 34.7583 75.2101C31.1781 74.7584 27.6482 74.0558 24.1768 73.1189C24.0179 73.0771 23.8673 72.9851 23.7502 72.8596C22.4118 71.3707 21.2826 70.4255 20.1032 69.7228C18.9154 69.0118 17.6439 68.5183 16.0546 67.9579C16.0044 67.9411 15.9459 67.916 15.8957 67.8826C9.32933 63.9595 6.46858 58.5642 3.67474 53.2777C2.85499 51.7218 2.03524 50.1743 1.13185 48.7021C1.11512 48.677 1.09839 48.6436 1.08166 48.6185C0.713609 47.8489 0.621597 47.0041 0.788893 46.2178C0.956188 45.4231 1.38279 44.687 2.03524 44.135C2.64587 43.6164 3.39034 43.3236 4.15153 43.265C3.65801 42.4118 3.49072 41.4415 3.63292 40.5214C3.79185 39.5176 4.31046 38.5724 5.15531 37.9032C5.99178 37.234 7.02065 36.9413 8.02443 37.0082C8.20845 37.0165 8.39248 37.0416 8.5765 37.0835C8.54304 36.3976 8.67688 35.7033 8.99474 35.0592C9.32933 34.3816 9.83122 33.8212 10.4418 33.4197C11.0525 33.0182 11.7635 32.7756 12.5163 32.7421C12.6251 32.7421 12.7338 32.7421 12.8425 32.7421V32.7338ZM23.5996 32.5749L24.9213 29.3628C26.1593 27.7651 27.2718 26.7864 28.1668 26.4435C28.401 26.3515 28.6018 26.3096 28.7691 26.3264C28.8862 26.3264 28.9949 26.3765 29.0869 26.4435C29.1957 26.5271 29.2961 26.6609 29.3881 26.8366L28.3927 38.5138L23.5996 32.5749Z" fill="#EAA98D"/>
</svg>
