<svg width="76" height="77" viewBox="0 0 76 77" fill="none" xmlns="http://www.w3.org/2000/svg">
<path d="M38.0931 30.9325C38.2769 31.1163 38.5176 31.2082 38.7584 31.2082C38.9992 31.2082 39.2399 31.1163 39.4237 30.9325L42.2079 28.1484C44.5662 30.1785 47.505 31.2022 50.4686 31.2022C53.8146 31.2022 57.1835 29.912 59.7556 27.3398C66.5724 20.523 66.0845 4.54972 66.0596 3.87291C66.0422 3.37346 65.6369 2.97509 65.1379 2.96544C64.445 2.95487 48.2374 2.7187 41.6862 9.2704C36.8362 14.1213 36.5565 21.7967 40.8777 26.8173L38.0931 29.6018C37.7255 29.9694 37.7255 30.5649 38.0931 30.9325ZM43.5391 26.8171L45.9772 24.3791L59.4426 24.8249C59.1238 25.2466 58.7877 25.6464 58.425 26.0092C54.3088 30.1244 47.824 30.4078 43.5391 26.8171ZM63.2452 15.0684L55.5431 14.8134L64.1692 6.18736C64.1154 8.28918 63.9116 11.6072 63.2452 15.0684ZM60.6084 22.9803L47.7998 22.5565L53.7204 16.636L62.8357 16.938C62.317 19.0703 61.5967 21.1625 60.6084 22.9803ZM54.2129 13.4823L53.9606 5.8671C57.3922 5.20505 60.6959 4.96974 62.8063 4.8891L54.2129 13.4823ZM52.3904 15.3047L46.4698 21.2252L46.0464 8.4527C47.8512 7.49652 49.9478 6.79065 52.0917 6.27472L52.3904 15.3047ZM43.0168 10.601C43.3757 10.2422 43.7773 9.91079 44.2021 9.5953L44.6473 23.0477L42.2084 25.4865C38.6189 21.2027 38.9009 14.7174 43.0168 10.601Z" fill="#EAA98D"/>
<path d="M27.3431 27.7125C22.3394 32.7172 22.3394 40.86 27.3431 45.8647C29.8454 48.367 33.1325 49.6177 36.4196 49.6177C39.7058 49.6177 42.9929 48.367 45.4952 45.8647C45.6717 45.6882 45.7709 45.4488 45.7709 45.1993C45.7709 44.9498 45.6717 44.7105 45.4952 44.534L28.6738 27.7125C28.3209 27.3597 27.696 27.3597 27.3431 27.7125ZM28.6738 44.534C24.6276 40.4874 24.4153 34.0363 28.0369 29.737L43.4708 45.1709C39.1719 48.792 32.7218 48.5802 28.6738 44.534Z" fill="#EAA98D"/>
<path d="M30.5745 42.6325C30.7583 42.8162 30.9991 42.9081 31.2398 42.9081C31.4806 42.9081 31.7214 42.8162 31.9052 42.6325L33.5234 41.0142C33.891 40.6466 33.891 40.0511 33.5234 39.6835C33.1559 39.3159 32.5604 39.3159 32.1928 39.6835L30.5745 41.3018C30.2069 41.6694 30.2069 42.2649 30.5745 42.6325Z" fill="#EAA98D"/>
<path d="M36.6402 45.5509C37.1604 45.5509 37.5812 45.1296 37.5812 44.6099V42.3213C37.5812 41.8016 37.1604 41.3802 36.6402 41.3802C36.1201 41.3802 35.6992 41.8016 35.6992 42.3213V44.6099C35.6992 45.1296 36.1201 45.5509 36.6402 45.5509Z" fill="#EAA98D"/>
<path d="M27.6567 36.5683C27.6567 37.088 28.0776 37.5093 28.5977 37.5093H30.8859C31.4061 37.5093 31.827 37.088 31.827 36.5683C31.827 36.0487 31.4061 35.6273 30.8859 35.6273H28.5977C28.0776 35.6273 27.6567 36.0487 27.6567 36.5683Z" fill="#EAA98D"/>
<path d="M11.6787 64.2602C12.1997 64.8616 12.4864 65.6308 12.4864 66.4261V75.2743C12.4864 75.794 12.9073 76.2153 13.4274 76.2153H29.4752C29.9953 76.2153 30.4162 75.794 30.4162 75.2743V56.1821C30.4162 54.7963 29.8768 53.4932 28.8962 52.5132L17.5609 41.1788C16.5749 40.1927 15.2635 39.6492 13.8695 39.6492C12.6344 39.6492 11.4655 40.0751 10.53 40.8567V28.0979C10.53 25.3327 8.46049 22.9692 5.8185 22.7169C4.34449 22.5768 2.88243 23.0629 1.79807 24.0499C0.710942 25.0378 0.0878906 26.4461 0.0878906 27.9136V47.3656C0.0878906 49.635 0.90668 51.8294 2.39263 53.5456L11.6787 64.2602ZM1.96991 27.9136C1.96991 26.9749 2.36874 26.0743 3.06347 25.4421C3.76739 24.802 4.68175 24.4997 5.64022 24.5907C7.3265 24.7515 8.64796 26.2921 8.64796 28.0979V44.8128C8.64796 44.8252 8.64796 44.8376 8.64888 44.85C8.64888 44.8569 8.64888 44.8633 8.64888 44.8702C8.64888 46.2647 9.19198 47.5761 10.178 48.5621L17.3422 55.7272C17.7098 56.0948 18.3053 56.0948 18.6728 55.7272C19.0404 55.3601 19.0404 54.7641 18.6728 54.3966L11.5087 47.2315C10.8783 46.6006 10.5309 45.762 10.5309 44.8702C10.5309 43.9784 10.8783 43.1403 11.5087 42.5094C12.7695 41.2481 14.9695 41.2472 16.2303 42.5094L27.5656 53.8438C28.1905 54.4687 28.5342 55.299 28.5342 56.1821V74.3333H14.3685V66.4261C14.3685 65.1782 13.9182 63.9711 13.1012 63.0278L3.81517 52.3133C2.62513 50.9394 1.96991 49.1824 1.96991 47.3656V27.9136Z" fill="#EAA98D"/>
<path d="M69.6377 22.7168C66.9957 22.9691 64.9262 25.3326 64.9262 28.0978V40.8565C63.9907 40.075 62.8218 39.649 61.5868 39.649C60.1927 39.649 58.8813 40.1926 57.8953 41.1786L46.56 52.513C45.5795 53.4931 45.04 54.7962 45.04 56.182V75.2742C45.04 75.7938 45.4609 76.2152 45.981 76.2152H62.0288C62.5489 76.2152 62.9698 75.7938 62.9698 75.2742V66.426C62.9698 65.6307 63.2565 64.8615 63.7775 64.26L73.0636 53.5455C74.5495 51.8293 75.3683 49.6349 75.3683 47.3655V27.9135C75.3683 26.4459 74.7453 25.0376 73.6582 24.0498C72.5738 23.0628 71.1136 22.5799 69.6377 22.7168ZM73.4863 47.3655C73.4863 49.1823 72.8311 50.9393 71.641 52.3132L62.355 63.0277C61.538 63.971 61.0878 65.1781 61.0878 66.426V74.3332H46.9221V56.182C46.9221 55.2988 47.2657 54.4686 47.8906 53.8437L59.226 42.5093C60.4877 41.2471 62.6877 41.248 63.9475 42.5093C64.578 43.1401 64.9253 43.9782 64.9253 44.8701C64.9253 45.7619 64.578 46.6005 63.9475 47.2313L56.7834 54.3964C56.4158 54.764 56.4158 55.36 56.7834 55.7271C57.151 56.0947 57.7464 56.0947 58.114 55.7271L65.2782 48.562C66.2642 47.5759 66.8073 46.2646 66.8073 44.8701C66.8073 44.8632 66.8073 44.8567 66.8073 44.8499C66.8083 44.8375 66.8083 44.825 66.8083 44.8126V28.0978C66.8083 26.292 68.1297 24.7514 69.816 24.5906C70.7781 24.5 71.6888 24.8019 72.3927 25.442C73.0875 26.0742 73.4863 26.9748 73.4863 27.9135V47.3655Z" fill="#EAA98D"/>
<path d="M23.0749 0.934326C16.6385 0.934326 11.4014 6.17099 11.4014 12.6074C11.4014 19.0442 16.6385 24.2808 23.0749 24.2808C29.5112 24.2808 34.7484 19.0442 34.7484 12.6074C34.7484 6.17099 29.5112 0.934326 23.0749 0.934326ZM23.0749 22.3988C17.676 22.3988 13.2834 18.0062 13.2834 12.6074C13.2834 7.20849 17.676 2.81635 23.0749 2.81635C28.4737 2.81635 32.8663 7.20849 32.8663 12.6074C32.8663 18.0062 28.4737 22.3988 23.0749 22.3988Z" fill="#EAA98D"/>
<path d="M23.0742 6.87439C19.913 6.87439 17.3408 9.44609 17.3408 12.6073C17.3408 15.7685 19.913 18.3407 23.0742 18.3407C26.2354 18.3407 28.8075 15.7685 28.8075 12.6073C28.8075 9.44609 26.2354 6.87439 23.0742 6.87439ZM23.0742 16.4586C20.9505 16.4586 19.2228 14.731 19.2228 12.6073C19.2228 10.484 20.9505 8.75641 23.0742 8.75641C25.1979 8.75641 26.9255 10.484 26.9255 12.6073C26.9255 14.731 25.1979 16.4586 23.0742 16.4586Z" fill="#EAA98D"/>
</svg>
