<svg width="317" height="317" viewBox="0 0 317 317" fill="none" xmlns="http://www.w3.org/2000/svg">
<path d="M104.188 54.3809L140.274 120.442C150.847 139.8 174.778 147.42 194.598 137.739L262.239 104.702L196.175 140.789C176.817 151.363 169.197 175.294 178.878 195.113L211.915 262.754L175.827 196.69C165.254 177.332 141.323 169.713 121.504 179.393L53.8624 212.43L119.927 176.343C139.284 165.77 146.904 141.838 137.224 122.019L104.188 54.3809Z" fill="#EAA98D"/>
<path d="M193.638 46.8094L172.442 119.039C166.232 140.203 177.764 162.51 198.624 169.683L269.812 194.152L197.582 172.956C176.418 166.746 154.108 178.28 146.939 199.138L122.47 270.326L143.666 198.096C149.876 176.932 138.342 154.622 117.484 147.452L46.2959 122.983L118.526 144.179C139.69 150.39 161.997 138.857 169.169 117.997L193.638 46.8094Z" fill="#EAA98D"/>
</svg>
